<svg width="300" height="341" viewBox="0 0 300 341" fill="none" xmlns="http://www.w3.org/2000/svg">
<path d="M0 119.184C0 97.4688 11.733 77.4485 30.6783 66.8365L120.678 16.4242C138.895 6.22055 161.105 6.22056 179.322 16.4242L269.322 66.8365C288.267 77.4485 300 97.4689 300 119.184V217.257C300 238.365 288.908 257.921 270.792 268.753L180.792 322.568C161.829 333.906 138.171 333.906 119.208 322.568L29.2084 268.753C11.0918 257.921 0 238.365 0 217.257V119.184Z" fill="white"/>
<path d="M40 141.766C40 120.051 51.733 100.03 70.6783 89.4183L120.656 61.4242C138.872 51.2206 161.083 51.2206 179.299 61.4242L229.276 89.4183C248.222 100.03 259.955 120.051 259.955 141.766V195.209C259.955 216.317 248.863 235.873 230.746 246.705L180.769 276.589C161.807 287.927 138.148 287.927 119.186 276.589L69.2084 246.705C51.0917 235.873 40 216.317 40 195.209V141.766Z" fill="#643EA7"/>
<g clip-path="url(#clip0_50_6)">
<path d="M136.957 161.304L150.001 270L236.957 220V120L136.957 161.304Z" fill="#FB992D"/>
<path d="M150 156.957V270L63.0439 220V120L150 156.957Z" fill="#FFB739"/>
<path d="M63.0426 120L93.4404 137.478L151.032 120.557L180.394 87.4752L149.999 70L63.0426 120Z" fill="#FB992D"/>
<path d="M119.607 152.523L149.999 170L236.956 120L206.564 102.521L148.546 119.687L119.607 152.523Z" fill="#F67A21"/>
<path d="M119.607 196.001L93.4404 180.956V137.478L118.663 139.448L119.607 152.523V196.001Z" fill="#FFEAC3"/>
<path d="M93.4404 137.478L180.394 87.4752L206.564 102.521L119.607 152.523L93.4404 137.478Z" fill="#FFD488"/>
<path d="M144.011 237.87C144.011 235.774 143.124 234.122 141.351 232.913L116.927 218.283C116.121 217.799 115.275 217.799 114.388 218.283C113.582 218.686 113.179 219.371 113.179 220.338V237.386C113.179 239.482 114.066 241.134 115.839 242.344L140.263 256.973C141.069 257.457 141.875 257.457 142.681 256.973C143.567 256.57 144.011 255.885 144.011 254.918V237.87Z" fill="#FFEAC3"/>
<path d="M114.671 219.423L116.284 220.382V241.364L114.671 240.406V219.423ZM117.271 241.951L118.179 242.491V221.508L117.271 220.968V241.951ZM118.834 242.879L119.741 243.418V222.435L118.834 221.897V242.879ZM120.933 244.126L122.918 245.306V224.323L120.933 223.144V244.126ZM124.508 246.251L125.501 246.841V225.858L124.508 225.268V246.251ZM127.041 247.755L131.155 250.2V229.217L127.041 226.772V247.755ZM137.763 254.126L139.116 254.929V233.947L137.763 233.143V254.126ZM140.295 234.648V255.63L142.139 256.726V235.743L140.295 234.648ZM132.806 251.181L133.691 251.707V230.724L132.806 230.198V251.181ZM134.959 252.46L135.844 252.986V232.003L134.959 231.477V252.46Z" fill="#030104"/>
</g>
<defs>
<clipPath id="clip0_50_6">
<rect width="200" height="200" fill="white" transform="translate(50 70)"/>
</clipPath>
</defs>
</svg>
