<?xml version="1.0" encoding="UTF-8" standalone="no"?>
<!-- Uploaded to: SVG Repo, www.svgrepo.com, Generator: SVG Repo Mixer Tools -->

<svg
   height="800px"
   width="800px"
   version="1.1"
   id="Layer_1"
   viewBox="0 0 460 460"
   xml:space="preserve"
   sodipodi:docname="JustLogoInventário.svg"
   inkscape:version="1.3.2 (091e20e, 2023-11-25, custom)"
   xmlns:inkscape="http://www.inkscape.org/namespaces/inkscape"
   xmlns:sodipodi="http://sodipodi.sourceforge.net/DTD/sodipodi-0.dtd"
   xmlns="http://www.w3.org/2000/svg"
   xmlns:svg="http://www.w3.org/2000/svg"><defs
   id="defs1" /><sodipodi:namedview
   id="namedview1"
   pagecolor="#ffffff"
   bordercolor="#000000"
   borderopacity="0.25"
   inkscape:showpageshadow="2"
   inkscape:pageopacity="0.0"
   inkscape:pagecheckerboard="0"
   inkscape:deskcolor="#d1d1d1"
   inkscape:zoom="2.1525"
   inkscape:cx="374.44832"
   inkscape:cy="591.63763"
   inkscape:window-width="1920"
   inkscape:window-height="1057"
   inkscape:window-x="-8"
   inkscape:window-y="-8"
   inkscape:window-maximized="1"
   inkscape:current-layer="XMLID_1135_" />
<g
   id="XMLID_1135_">
	<polygon
   id="XMLID_1136_"
   style="fill:#FB992D;"
   points="200.002,210 230.002,460 430.002,345 430.002,115  " />
	<polygon
   id="XMLID_1137_"
   style="fill:#FFB739;"
   points="230.001,200 230.001,460 30.001,345 30.001,115  " />
	<polygon
   id="XMLID_1138_"
   style="fill:#FB992D;"
   points="29.998,115 99.913,155.199 232.373,116.28 299.907,40.193 229.998,0  " />
	<polygon
   id="XMLID_1139_"
   style="fill:#F67A21;"
   points="160.096,189.804 229.998,230 429.998,115 360.098,74.798 226.657,114.279     " />
	<polygon
   id="XMLID_1140_"
   style="fill:#FFEAC3;"
   points="160.096,289.803 99.913,255.199 99.913,155.199 157.924,159.73    160.096,189.804  " />
	<polygon
   id="XMLID_1141_"
   style="fill:#FFD488;"
   points="99.913,155.199 299.907,40.193 360.098,74.798 160.096,189.804  " />
<path
   style="font-size:100.16px;line-height:1.2;font-family:Webdings;-inkscape-font-specification:Webdings;text-align:center;white-space:pre;fill:#ffeac3;fill-opacity:1;stroke-width:82.0114"
   d="m 216.22458,386.10094 q 0,-7.23024 -6.11793,-11.40157 L 153.9332,341.05093 q -2.78086,-1.66852 -5.83981,0 -2.78088,1.39044 -2.78088,4.72743 v 39.21019 q 0,7.23029 6.1179,11.40157 l 56.17343,33.64848 q 2.78091,1.66848 5.56176,0 3.05898,-1.3905 3.05898,-4.7275 z"
   id="text2" /><g
   id="g1"
   transform="matrix(4.1364927,2.4576298,0,4.1364927,148.74238,336.21495)">
	<path
   style="fill:#030104"
   d="M 0,1.803 H 0.897 V 13.47 H 0 Z M 1.446,13.47 H 1.951 V 1.803 H 1.446 Z m 0.869,0 H 2.819 V 1.803 H 2.315 Z m 1.167,0 H 4.586 V 1.803 H 3.482 Z m 1.988,0 H 6.022 V 1.803 H 5.47 Z m 1.408,0 H 9.166 V 1.803 H 6.878 Z m 5.962,0 h 0.752 V 1.803 H 12.84 Z M 14.248,1.803 V 13.47 h 1.025 V 1.803 Z M 10.084,13.47 h 0.492 V 1.803 h -0.492 z m 1.197,0 h 0.492 V 1.803 h -0.492 z"
   id="path1" />
</g></g>
</svg>
