<?xml version="1.0" encoding="UTF-8" standalone="no"?>
<!-- Uploaded to: SVG Repo, www.svgrepo.com, Generator: SVG Repo Mixer Tools -->

<svg
   height="800px"
   width="800px"
   version="1.1"
   id="Layer_1"
   viewBox="0 0 460 460"
   xml:space="preserve"
   sodipodi:docname="JustLogoColetor.svg"
   inkscape:version="1.3.2 (091e20e, 2023-11-25, custom)"
   xmlns:inkscape="http://www.inkscape.org/namespaces/inkscape"
   xmlns:sodipodi="http://sodipodi.sourceforge.net/DTD/sodipodi-0.dtd"
   xmlns="http://www.w3.org/2000/svg"
   xmlns:svg="http://www.w3.org/2000/svg"><defs
   id="defs1"><clipPath
     id="clip0"><rect
       width="105.014"
       height="162.115"
       fill="white"
       transform="translate(0.685059 0.945923)"
       id="rect11" /></clipPath></defs><sodipodi:namedview
   id="namedview1"
   pagecolor="#ffffff"
   bordercolor="#000000"
   borderopacity="0.25"
   inkscape:showpageshadow="2"
   inkscape:pageopacity="0.0"
   inkscape:pagecheckerboard="0"
   inkscape:deskcolor="#d1d1d1"
   inkscape:zoom="1.07625"
   inkscape:cx="399.53542"
   inkscape:cy="400"
   inkscape:window-width="1920"
   inkscape:window-height="1057"
   inkscape:window-x="-8"
   inkscape:window-y="-8"
   inkscape:window-maximized="1"
   inkscape:current-layer="Layer_1" />
<g
   id="XMLID_1135_"
   inkscape:label="Box"
   transform="matrix(0.72405589,0,0,0.72405589,107.4552,60.240437)">
	<polygon
   id="XMLID_1136_"
   style="fill:#fb992d"
   points="200.002,210 230.002,460 430.002,345 430.002,115 " />
	<polygon
   id="XMLID_1137_"
   style="fill:#ffb739"
   points="230.001,200 230.001,460 30.001,345 30.001,115 " />
	<polygon
   id="XMLID_1138_"
   style="fill:#fb992d"
   points="229.998,0 29.998,115 99.913,155.199 232.373,116.28 299.907,40.193 " />
	<polygon
   id="XMLID_1139_"
   style="fill:#f67a21"
   points="226.657,114.279 160.096,189.804 229.998,230 429.998,115 360.098,74.798 " />
	<polygon
   id="XMLID_1140_"
   style="fill:#ffeac3"
   points="160.096,189.804 160.096,289.803 99.913,255.199 99.913,155.199 157.924,159.73 " />
	<polygon
   id="XMLID_1141_"
   style="fill:#ffd488"
   points="99.913,155.199 299.907,40.193 360.098,74.798 160.096,189.804 " />
<path
   style="font-size:100.16px;line-height:1.2;font-family:Webdings;-inkscape-font-specification:Webdings;text-align:center;white-space:pre;fill:#ffeac3;fill-opacity:1;stroke-width:82.0114"
   d="m 216.22458,386.10094 q 0,-7.23024 -6.11793,-11.40157 L 153.9332,341.05093 q -2.78086,-1.66852 -5.83981,0 -2.78088,1.39044 -2.78088,4.72743 v 39.21019 q 0,7.23029 6.1179,11.40157 l 56.17343,33.64848 q 2.78091,1.66848 5.56176,0 3.05898,-1.3905 3.05898,-4.7275 z"
   id="text2" /><path
   style="fill:#030104"
   d="M 0,1.803 H 0.897 V 13.47 H 0 Z M 1.446,13.47 H 1.951 V 1.803 H 1.446 Z m 0.869,0 H 2.819 V 1.803 H 2.315 Z m 1.167,0 H 4.586 V 1.803 H 3.482 Z m 1.988,0 H 6.022 V 1.803 H 5.47 Z m 1.408,0 H 9.166 V 1.803 H 6.878 Z m 5.962,0 h 0.752 V 1.803 H 12.84 Z M 14.248,1.803 V 13.47 h 1.025 V 1.803 Z M 10.084,13.47 h 0.492 V 1.803 h -0.492 z m 1.197,0 h 0.492 V 1.803 h -0.492 z"
   id="path1"
   transform="matrix(4.1364927,2.4576298,0,4.1364927,148.74238,336.21495)" /></g><g
   id="g1"
   transform="matrix(4.1364927,2.4576298,0,4.1364927,148.74238,336.21495)">
	
</g><g
   style="fill:#000000"
   id="g3"
   transform="matrix(1.9134338,0,0,1.9134338,191.53943,289.31579)"><path
     d="m 48.500037,31.999977 a 1.61,1.61 0 0 0 -1.500078,1.500078 v 8.079932 c 0,1.709998 -0.589992,2.320068 -2.24999,2.320068 h -8.249922 a 1.55,1.55 0 0 0 0,3.099942 h 8.999961 c 2.999997,0 4.49998,-1.550043 4.49998,-4.65004 v -8.849902 a 1.61,1.61 0 0 0 -1.499951,-1.500078 z"
     id="path25" /><path
     d="m 3.4999773,31.999977 a 1.61,1.61 0 0 0 -1.4999512,1.500078 v 8.849902 c 0,3.099997 1.4999836,4.65004 4.4999806,4.65004 h 8.9999613 a 1.55,1.55 0 0 0 0,-3.099942 H 7.2500458 c -1.6599983,0 -2.2499903,-0.61007 -2.2499903,-2.320068 V 33.500055 A 1.61,1.61 0 0 0 3.4999773,31.999977 Z"
     id="path24" /><path
     d="m 36.500047,4.999966 a 1.5500342,1.5500342 0 0 0 0,3.1000685 h 8.249922 c 1.659998,0 2.24999,0.6099432 2.24999,2.3199415 v 8.080059 a 1.5000147,1.5000147 0 0 0 3.000029,0 V 9.6500052 c 0,-3.0999969 -1.499983,-4.6500392 -4.49998,-4.6500392 z"
     id="path13" /><path
     d="m 6.5000067,4.999966 c -2.999997,0 -4.4999806,1.5500423 -4.4999806,4.6500392 v 8.8500298 a 1.61,1.61 0 0 0 1.4999512,1.499951 1.61,1.61 0 0 0 1.5000782,-1.499951 v -8.080059 c 0,-1.7099983 0.589992,-2.3199415 2.2499903,-2.3199415 h 8.2499222 a 1.5500342,1.5500342 0 0 0 0,-3.1000685 z"
     id="path12" /></g><g
   style="fill:#000000"
   id="g4"
   transform="matrix(2.3,0,0,2.3,-1046.6288,-1830.7988)"><path
     d="m 599.091,796 h -88.068 c -9.139,0 -16.574,7.435 -16.574,16.572 v 166.854 c 0,9.138 7.436,16.573 16.574,16.573 h 88.068 c 9.138,0 16.572,-7.436 16.572,-16.573 V 812.572 c 0,-9.137 -7.434,-16.572 -16.572,-16.572 z m 4.248,183.427 c 0,2.343 -1.906,4.25 -4.248,4.25 h -88.068 c -2.344,0 -4.25,-1.907 -4.25,-4.25 V 812.572 c 0,-2.343 1.907,-4.249 4.25,-4.249 h 15.164 c 0.515,4.248 4.132,7.541 8.519,7.541 h 40.697 c 4.392,0 8.005,-3.293 8.52,-7.541 h 15.169 c 2.342,0 4.248,1.906 4.248,4.249 v 166.855 z"
     id="path1-5" /></g>
</svg>
